<?xml version="1.0" encoding="UTF-8" standalone="no"?>
<!DOCTYPE svg PUBLIC "-//W3C//DTD SVG 1.1//EN"
 "http://www.w3.org/Graphics/SVG/1.1/DTD/svg11.dtd">
<!-- Generated by graphviz version 2.40.1 (20161225.0304)
 -->
<!-- Title: BigQuery schema for octocov datasource Pages: 1 -->
<svg width="335pt" height="489pt"
 viewBox="0.00 0.00 335.00 489.00" xmlns="http://www.w3.org/2000/svg" xmlns:xlink="http://www.w3.org/1999/xlink">
<g id="graph0" class="graph" transform="scale(1 1) rotate(0) translate(4 485)">
<title>BigQuery schema for octocov datasource</title>
<polygon fill="#ffffff" stroke="transparent" points="-4,4 -4,-485 331,-485 331,4 -4,4"/>
<!-- reports -->
<g id="node1" class="node">
<title>reports</title>
<polygon fill="#efefef" stroke="transparent" points="43.5,-402.5 43.5,-437.5 284.5,-437.5 284.5,-402.5 43.5,-402.5"/>
<polygon fill="none" stroke="#000000" points="43.5,-402.5 43.5,-437.5 284.5,-437.5 284.5,-402.5 43.5,-402.5"/>
<text text-anchor="start" x="107.989" y="-415.3" font-family="Arial Bold" font-size="18.00" fill="#000000">reports</text>
<text text-anchor="start" x="163.9942" y="-415.3" font-family="Arial" font-size="14.00" fill="#000000"> </text>
<text text-anchor="start" x="167.8848" y="-415.3" font-family="Arial" font-size="14.00" fill="#666666">[TABLE]</text>
<polygon fill="none" stroke="#000000" points="43.5,-372.5 43.5,-402.5 284.5,-402.5 284.5,-372.5 43.5,-372.5"/>
<text text-anchor="start" x="50.5" y="-383.9" font-family="Arial" font-size="14.00" fill="#000000">id </text>
<text text-anchor="start" x="65.2798" y="-383.9" font-family="Arial" font-size="14.00" fill="#666666">[STRING]</text>
<polygon fill="none" stroke="#000000" points="43.5,-342.5 43.5,-372.5 284.5,-372.5 284.5,-342.5 43.5,-342.5"/>
<text text-anchor="start" x="50.5" y="-353.9" font-family="Arial" font-size="14.00" fill="#000000">owner </text>
<text text-anchor="start" x="92.5056" y="-353.9" font-family="Arial" font-size="14.00" fill="#666666">[STRING]</text>
<polygon fill="none" stroke="#000000" points="43.5,-312.5 43.5,-342.5 284.5,-342.5 284.5,-312.5 43.5,-312.5"/>
<text text-anchor="start" x="50.5" y="-323.9" font-family="Arial" font-size="14.00" fill="#000000">repo </text>
<text text-anchor="start" x="82.399" y="-323.9" font-family="Arial" font-size="14.00" fill="#666666">[STRING]</text>
<polygon fill="none" stroke="#000000" points="43.5,-282.5 43.5,-312.5 284.5,-312.5 284.5,-282.5 43.5,-282.5"/>
<text text-anchor="start" x="50.5" y="-293.9" font-family="Arial" font-size="14.00" fill="#000000">ref </text>
<text text-anchor="start" x="70.7244" y="-293.9" font-family="Arial" font-size="14.00" fill="#666666">[STRING]</text>
<polygon fill="none" stroke="#000000" points="43.5,-252.5 43.5,-282.5 284.5,-282.5 284.5,-252.5 43.5,-252.5"/>
<text text-anchor="start" x="50.5" y="-263.9" font-family="Arial" font-size="14.00" fill="#000000">commit </text>
<text text-anchor="start" x="99.4916" y="-263.9" font-family="Arial" font-size="14.00" fill="#666666">[STRING]</text>
<polygon fill="none" stroke="#000000" points="43.5,-222.5 43.5,-252.5 284.5,-252.5 284.5,-222.5 43.5,-222.5"/>
<text text-anchor="start" x="50.5" y="-233.9" font-family="Arial" font-size="14.00" fill="#000000">coverage_total </text>
<text text-anchor="start" x="146.1998" y="-233.9" font-family="Arial" font-size="14.00" fill="#666666">[INTEGER]</text>
<polygon fill="none" stroke="#000000" points="43.5,-192.5 43.5,-222.5 284.5,-222.5 284.5,-192.5 43.5,-192.5"/>
<text text-anchor="start" x="50.5" y="-203.9" font-family="Arial" font-size="14.00" fill="#000000">coverage_covered </text>
<text text-anchor="start" x="169.5378" y="-203.9" font-family="Arial" font-size="14.00" fill="#666666">[INTEGER]</text>
<polygon fill="none" stroke="#000000" points="43.5,-162.5 43.5,-192.5 284.5,-192.5 284.5,-162.5 43.5,-162.5"/>
<text text-anchor="start" x="50.411" y="-173.9" font-family="Arial" font-size="14.00" fill="#000000">code_to_test_ratio_code </text>
<text text-anchor="start" x="207.5876" y="-173.9" font-family="Arial" font-size="14.00" fill="#666666">[INTEGER]</text>
<polygon fill="none" stroke="#000000" points="43.5,-132.5 43.5,-162.5 284.5,-162.5 284.5,-132.5 43.5,-132.5"/>
<text text-anchor="start" x="50.5" y="-143.9" font-family="Arial" font-size="14.00" fill="#000000">code_to_test_ratio_test </text>
<text text-anchor="start" x="199.8926" y="-143.9" font-family="Arial" font-size="14.00" fill="#666666">[INTEGER]</text>
<polygon fill="none" stroke="#000000" points="43.5,-102.5 43.5,-132.5 284.5,-132.5 284.5,-102.5 43.5,-102.5"/>
<text text-anchor="start" x="50.5" y="-113.9" font-family="Arial" font-size="14.00" fill="#000000">test_execution_time </text>
<text text-anchor="start" x="178.8702" y="-113.9" font-family="Arial" font-size="14.00" fill="#666666">[NUMERIC]</text>
<polygon fill="none" stroke="#000000" points="43.5,-72.5 43.5,-102.5 284.5,-102.5 284.5,-72.5 43.5,-72.5"/>
<text text-anchor="start" x="50.5" y="-83.9" font-family="Arial" font-size="14.00" fill="#000000">timestamp </text>
<text text-anchor="start" x="118.9474" y="-83.9" font-family="Arial" font-size="14.00" fill="#666666">[TIMESTAMP]</text>
<polygon fill="none" stroke="#000000" points="43.5,-42.5 43.5,-72.5 284.5,-72.5 284.5,-42.5 43.5,-42.5"/>
<text text-anchor="start" x="50.5" y="-53.9" font-family="Arial" font-size="14.00" fill="#000000">raw </text>
<text text-anchor="start" x="76.9404" y="-53.9" font-family="Arial" font-size="14.00" fill="#666666">[STRING]</text>
</g>
</g>
</svg>
