<?xml version="1.0" encoding="UTF-8" standalone="no"?>
<!DOCTYPE svg PUBLIC "-//W3C//DTD SVG 1.1//EN" "http://www.w3.org/Graphics/SVG/1.1/DTD/svg11.dtd">
<svg width="100%" height="100%" viewBox="0 0 500 1000" version="1.1" xmlns="http://www.w3.org/2000/svg" xmlns:xlink="http://www.w3.org/1999/xlink" xml:space="preserve" xmlns:serif="http://www.serif.com/" style="fill-rule:evenodd;clip-rule:evenodd;stroke-linejoin:round;stroke-miterlimit:2;">
    <g transform="matrix(25,0,0,25,50.4204,170.417)">
        <path d="M10.831,1.2L5.169,1.2L1.2,5.169L1.2,10.831L5.169,14.8L10.831,14.8L14.8,10.831L14.8,5.169L10.831,1.2ZM5.831,2.8L10.169,2.8C10.169,2.8 13.2,5.831 13.2,5.831C13.2,5.831 13.2,10.169 13.2,10.169C13.2,10.169 10.169,13.2 10.169,13.2C10.169,13.2 5.831,13.2 5.831,13.2C5.831,13.2 2.8,10.169 2.8,10.169C2.8,10.169 2.8,5.831 2.8,5.831L5.831,2.8Z" style="fill:rgb(36,41,46);"/>
    </g>
    <g transform="matrix(1,0,0,1,0,156.677)">
        <path d="M114.664,632.672C119.151,632.672 123.191,631.639 126.793,629.603C130.434,627.543 133.284,624.693 135.344,621.052C137.379,617.453 138.413,613.387 138.413,608.844C138.413,604.301 137.379,600.235 135.344,596.636C133.281,592.989 130.425,590.149 126.778,588.116C123.181,586.112 119.145,585.094 114.664,585.094C110.182,585.094 106.147,586.112 102.55,588.116C98.908,590.146 96.042,592.98 93.953,596.622C91.886,600.225 90.835,604.296 90.835,608.844C90.835,613.392 91.886,617.463 93.953,621.066C96.039,624.702 98.9,627.547 102.535,629.603C106.136,631.639 110.177,632.672 114.664,632.672ZM114.664,622.217C112.237,622.217 110.055,621.681 108.127,620.576C106.235,619.492 104.755,617.945 103.671,615.948C102.543,613.869 101.998,611.498 101.998,608.844C101.998,606.19 102.543,603.819 103.671,601.74C104.755,599.743 106.235,598.196 108.127,597.112C110.055,596.007 112.237,595.471 114.664,595.471C117.091,595.471 119.272,596.007 121.201,597.112C123.084,598.191 124.548,599.731 125.606,601.72C126.715,603.805 127.25,606.182 127.25,608.844C127.25,611.506 126.715,613.883 125.606,615.968C124.548,617.957 123.084,619.497 121.201,620.576C119.272,621.681 117.091,622.217 114.664,622.217Z" style="fill:rgb(166,166,166);fill-rule:nonzero;"/>
    </g>
    <g transform="matrix(1,0,0,1,0,156.677)">
        <path d="M165.213,632.672C169.175,632.672 172.749,631.874 175.942,630.307C179.256,628.681 181.863,626.301 183.765,623.171L185.123,620.937L176.497,615.078L174.959,617.386C173.885,618.997 172.529,620.204 170.876,620.989C169.141,621.813 167.252,622.217 165.213,622.217C162.725,622.217 160.483,621.676 158.496,620.563C156.565,619.481 155.061,617.95 153.979,615.977C152.852,613.921 152.312,611.54 152.312,608.844C152.312,606.19 152.857,603.819 153.985,601.74C155.066,599.747 156.567,598.206 158.496,597.125C160.483,596.012 162.725,595.471 165.213,595.471C167.243,595.471 169.123,595.884 170.851,596.726C172.513,597.537 173.878,598.76 174.959,600.381L176.497,602.689L185.123,596.83L183.765,594.596C181.864,591.467 179.272,589.09 175.99,587.464C172.825,585.897 169.236,585.094 165.213,585.094C160.626,585.094 156.528,586.112 152.911,588.112C149.238,590.142 146.357,592.979 144.267,596.622C142.199,600.225 141.149,604.296 141.149,608.844C141.149,613.387 142.197,617.469 144.262,621.097C146.353,624.772 149.237,627.624 152.911,629.655C156.528,631.655 160.626,632.672 165.213,632.672Z" style="fill:rgb(166,166,166);fill-rule:nonzero;"/>
    </g>
    <g transform="matrix(1,0,0,1,0,156.677)">
        <path d="M214.929,629.056L216.473,627.667L211.989,618.521L209.283,620.957C208.187,621.943 206.742,622.375 204.988,622.375C203.577,622.375 202.461,622.101 201.723,621.316C200.929,620.47 200.66,619.197 200.66,617.574C200.66,617.574 200.66,595.628 200.66,595.628C200.66,595.628 215.051,595.628 215.051,595.628L215.051,585.405L189.575,585.44L189.575,617.889C189.575,622.57 190.962,626.156 193.527,628.721C196.088,631.282 199.699,632.672 204.438,632.672C206.415,632.672 208.299,632.376 210.091,631.789C212.003,631.162 213.61,630.243 214.929,629.056Z" style="fill:rgb(166,166,166);fill-rule:nonzero;"/>
    </g>
    <g transform="matrix(1,0,0,1,0,156.677)">
        <path d="M242.422,632.672C246.909,632.672 250.95,631.639 254.551,629.603C258.192,627.543 261.043,624.693 263.102,621.052C265.137,617.453 266.172,613.387 266.172,608.844C266.172,604.301 265.137,600.235 263.102,596.636C261.039,592.989 258.183,590.149 254.536,588.116C250.939,586.112 246.903,585.094 242.422,585.094C237.941,585.094 233.905,586.112 230.308,588.116C226.667,590.146 223.8,592.98 221.711,596.622C219.644,600.225 218.594,604.296 218.594,608.844C218.594,613.392 219.644,617.463 221.711,621.066C223.797,624.702 226.658,627.547 230.293,629.603C233.894,631.639 237.935,632.672 242.422,632.672ZM242.422,622.217C239.995,622.217 237.813,621.681 235.885,620.576C233.994,619.492 232.513,617.945 231.429,615.948C230.301,613.869 229.757,611.498 229.757,608.844C229.757,606.19 230.301,603.819 231.429,601.74C232.513,599.743 233.994,598.196 235.885,597.112C237.813,596.007 239.995,595.471 242.422,595.471C244.849,595.471 247.031,596.007 248.959,597.112C250.842,598.191 252.307,599.731 253.365,601.72C254.474,603.805 255.009,606.182 255.009,608.844C255.009,611.506 254.474,613.883 253.365,615.968C252.307,617.957 250.842,619.497 248.959,620.576C247.031,621.681 244.849,622.217 242.422,622.217Z" style="fill:rgb(166,166,166);fill-rule:nonzero;"/>
    </g>
    <g transform="matrix(1,0,0,1,0,156.677)">
        <path d="M292.972,632.672C296.933,632.672 300.507,631.874 303.7,630.307C307.014,628.681 309.621,626.301 311.524,623.171L312.882,620.937L304.256,615.078L302.717,617.386C301.643,618.997 300.287,620.204 298.634,620.989C296.899,621.813 295.011,622.217 292.972,622.217C290.483,622.217 288.241,621.676 286.255,620.563C284.323,619.481 282.819,617.95 281.737,615.977C280.61,613.921 280.07,611.54 280.07,608.844C280.07,606.19 280.615,603.819 281.743,601.74C282.824,599.747 284.325,598.206 286.255,597.125C288.241,596.012 290.483,595.471 292.972,595.471C295.002,595.471 296.882,595.884 298.609,596.726C300.272,597.537 301.637,598.76 302.717,600.381L304.256,602.689L312.882,596.83L311.524,594.596C309.622,591.467 307.03,589.09 303.748,587.464C300.584,585.897 296.994,585.094 292.972,585.094C288.384,585.094 284.287,586.112 280.67,588.112C276.997,590.142 274.115,592.979 272.025,596.622C269.958,600.225 268.908,604.296 268.908,608.844C268.908,613.387 269.955,617.469 272.02,621.097C274.111,624.772 276.995,627.624 280.67,629.655C284.287,631.655 288.384,632.672 292.972,632.672Z" style="fill:rgb(166,166,166);fill-rule:nonzero;"/>
    </g>
    <g transform="matrix(1,0,0,1,0,156.677)">
        <path d="M337.308,632.672C341.795,632.672 345.836,631.639 349.437,629.603C353.078,627.543 355.929,624.693 357.988,621.052C360.023,617.453 361.058,613.387 361.058,608.844C361.058,604.301 360.023,600.235 357.988,596.636C355.925,592.989 353.07,590.149 349.422,588.116C345.825,586.112 341.79,585.094 337.308,585.094C332.827,585.094 328.791,586.112 325.194,588.116C321.553,590.146 318.687,592.98 316.597,596.622C314.53,600.225 313.48,604.296 313.48,608.844C313.48,613.392 314.53,617.463 316.597,621.066C318.683,624.702 321.544,627.547 325.179,629.603C328.781,631.639 332.821,632.672 337.308,632.672ZM337.308,622.217C334.881,622.217 332.7,621.681 330.771,620.576C328.88,619.492 327.399,617.945 326.315,615.948C325.187,613.869 324.643,611.498 324.643,608.844C324.643,606.19 325.187,603.819 326.315,601.74C327.399,599.743 328.88,598.196 330.771,597.112C332.7,596.007 334.881,595.471 337.308,595.471C339.735,595.471 341.917,596.007 343.845,597.112C345.728,598.191 347.193,599.731 348.251,601.72C349.36,603.805 349.895,606.182 349.895,608.844C349.895,611.506 349.36,613.883 348.251,615.968C347.193,617.957 345.728,619.497 343.845,620.576C341.917,621.681 339.735,622.217 337.308,622.217Z" style="fill:rgb(166,166,166);fill-rule:nonzero;"/>
    </g>
    <g transform="matrix(1,0,0,1,0,156.677)">
        <path d="M387.678,632.279L408.529,585.409L397.003,585.409L383.152,616.592C383.152,616.591 369.44,585.409 369.44,585.409L357.599,585.409L378.361,632.279L387.678,632.279Z" style="fill:rgb(166,166,166);fill-rule:nonzero;"/>
    </g>
</svg>
